<?xml version="1.0" encoding="UTF-8"?>
<svg width="26px" height="30px" viewBox="0 0 26 30" version="1.1" xmlns="http://www.w3.org/2000/svg" xmlns:xlink="http://www.w3.org/1999/xlink">
    <title>93C503EF-C105-48D1-BD21-F6A9B415696A</title>
    <g id="Visuals" stroke="none" stroke-width="1" fill="none" fill-rule="evenodd">
        <g id="Notifier" transform="translate(-163.000000, -1113.000000)" fill="#FFFFFF" fill-rule="nonzero">
            <g id="Group-8" transform="translate(150.000000, 466.000000)">
                <g id="Group-4" transform="translate(0.000000, 636.000000)">
                    <g id="bell-exclamation" transform="translate(13.000000, 11.000000)">
                        <path d="M25.1517587,19.6177734 C23.5266843,18.0580078 22.2881454,16.4255859 22.2881454,10.8931641 C22.2881454,6.22910156 18.6102538,2.42636719 13.9306198,1.96582031 L13.9306198,0.9375 C13.9306198,0.419733047 13.5148652,0 13.0020059,0 C12.4891466,0 12.0733919,0.419733047 12.0733919,0.9375 L12.0733919,1.96640625 C7.39085609,2.42636719 3.71412523,6.22910156 3.71412523,10.8931641 C3.71412523,16.4244141 2.47152369,18.0580078 0.84993158,19.6177734 C0.0396497775,20.3867098 -0.220082037,21.5789024 0.195839129,22.6201172 C0.61922553,23.6872612 1.64687463,24.3836443 2.78551128,24.3750796 L23.2150182,24.3750796 C24.3544228,24.3833339 25.3823622,23.6855912 25.8046903,22.6171875 C26.219561,21.5770298 25.9603921,20.3864692 25.1517587,19.6177734 Z M23.2150182,22.5 L2.78551128,22.5 C1.96020563,22.5 1.54639204,21.5349609 2.12851691,20.9765625 C4.15173456,19.03125 5.57135313,16.8550781 5.57135313,10.8931641 C5.57135313,6.94511719 8.89230878,3.75 13.0002647,3.75 C17.1082207,3.75 20.4291763,6.94453125 20.4291763,10.8931641 C20.4291763,16.8310547 21.8348657,19.0189453 23.869691,20.9753906 C24.4552982,21.5367188 24.0368415,22.5 23.2150182,22.5 Z M13.0002647,28.125 C11.9745461,28.125 11.1430368,27.2855339 11.1430368,26.25 L9.28580894,26.25 C9.28580894,28.3210678 10.9488274,30 13.0002647,30 C15.051702,30 16.7147205,28.3210678 16.7147205,26.25 L14.8574926,26.25 C14.8574926,27.2855339 14.0259834,28.125 13.0002647,28.125 Z M12.5069386,14.9999991 L13.4935909,14.9999991 C13.7376473,14.9967992 13.9390048,14.8062201 13.9578979,14.5605469 L14.3641665,7.99804687 C14.3721879,7.86873318 14.3268346,7.7418351 14.2388756,7.6474844 C14.1509167,7.5531337 14.0281982,7.49974668 13.8998595,7.4999991 L12.10067,7.4999991 C11.9723313,7.49974668 11.8496128,7.5531337 11.7616538,7.6474844 C11.6736949,7.7418351 11.6283416,7.86873318 11.636363,7.99804687 L12.0426316,14.5605469 C12.0579756,14.8079237 12.261427,15.0004845 12.5069386,14.9999991 L12.5069386,14.9999991 Z M13.0002647,16.40625 C12.2309758,16.40625 11.6073438,17.0358496 11.6073438,17.8125 C11.6073438,18.5891504 12.2309758,19.21875 13.0002647,19.21875 C13.7695537,19.21875 14.3931857,18.5891504 14.3931857,17.8125 C14.3931857,17.0358496 13.7695537,16.40625 13.0002647,16.40625 L13.0002647,16.40625 Z" id="Shape"></path>
                    </g>
                </g>
            </g>
        </g>
    </g>
</svg>