<?xml version="1.0" encoding="UTF-8"?>
<svg width="31px" height="35px" viewBox="0 0 31 35" version="1.1" xmlns="http://www.w3.org/2000/svg" xmlns:xlink="http://www.w3.org/1999/xlink">
    <title>3FC42FAD-99F4-43F8-9E12-91DC2C135B6E</title>
    <g id="Visuals" stroke="none" stroke-width="1" fill="none" fill-rule="evenodd">
        <g id="Notifier" transform="translate(-599.000000, -2519.000000)" fill="#FFFFFF" fill-rule="nonzero">
            <g id="Group-4" transform="translate(515.000000, 2504.000000)">
                <g id="bell-exclamation" transform="translate(84.000000, 15.000000)">
                    <path d="M29.3437184,22.8874023 C27.4477983,21.0676758 26.0028363,19.1631836 26.0028363,12.7086914 C26.0028363,7.26728516 21.7119627,2.83076172 16.2523898,2.29345703 L16.2523898,1.09375 C16.2523898,0.489688555 15.7673427,0 15.1690069,0 C14.570671,0 14.0856239,0.489688555 14.0856239,1.09375 L14.0856239,2.29414062 C8.62266544,2.83076172 4.33314611,7.26728516 4.33314611,12.7086914 C4.33314611,19.1618164 2.88344431,21.0676758 0.991586844,22.8874023 C0.0462580738,23.7844948 -0.256762377,25.1753861 0.228478984,26.3901367 C0.722429785,27.6351381 1.92135374,28.447585 3.24976316,28.4375928 L27.0841879,28.4375928 C28.4134933,28.4472228 29.6127559,27.6331897 30.1054721,26.3867187 C30.5894878,25.1732014 30.2871242,23.7842141 29.3437184,22.8874023 Z M27.0841879,26.25 L3.24976316,26.25 C2.28690657,26.25 1.80412405,25.1241211 2.48326973,24.4726562 C4.84369032,22.203125 6.49991199,19.6642578 6.49991199,12.7086914 C6.49991199,8.10263672 10.3743602,4.375 15.1669755,4.375 C19.9595908,4.375 23.8340391,8.10195313 23.8340391,12.7086914 C23.8340391,19.6362305 25.47401,22.1887695 27.8479729,24.4712891 C28.5311812,25.1261719 28.0429818,26.25 27.0841879,26.25 Z M15.1669755,32.8125 C13.9703038,32.8125 13.0002096,31.8331229 13.0002096,30.625 L10.8334438,30.625 C10.8334438,33.0412458 12.773632,35 15.1669755,35 C17.560319,35 19.5005073,33.0412458 19.5005073,30.625 L17.3337414,30.625 C17.3337414,31.8331229 16.3636473,32.8125 15.1669755,32.8125 Z M14.5914283,17.5000011 L15.7425227,17.5000011 C16.0272552,17.4962657 16.2621722,17.2739235 16.2842142,16.9873047 L16.7581942,9.33105469 C16.7675526,9.18018871 16.7146404,9.03214096 16.6120216,8.92206513 C16.5094028,8.81198931 16.3662312,8.74970446 16.2165028,8.74999895 L14.1174483,8.74999895 C13.9677198,8.74970446 13.8245483,8.81198931 13.7219295,8.92206513 C13.6193107,9.03214096 13.5663985,9.18018871 13.5757568,9.33105469 L14.0497369,16.9873047 C14.0676382,17.275911 14.3049982,17.5005653 14.5914283,17.5000011 L14.5914283,17.5000011 Z M15.1669755,19.140625 C14.2694717,19.140625 13.5419011,19.8751578 13.5419011,20.78125 C13.5419011,21.6873422 14.2694717,22.421875 15.1669755,22.421875 C16.0644793,22.421875 16.7920499,21.6873422 16.7920499,20.78125 C16.7920499,19.8751578 16.0644793,19.140625 15.1669755,19.140625 L15.1669755,19.140625 Z" id="Shape"></path>
                </g>
            </g>
        </g>
    </g>
</svg>