<?xml version="1.0" encoding="UTF-8"?>
<svg width="20px" height="20px" viewBox="0 0 20 20" version="1.1" xmlns="http://www.w3.org/2000/svg" xmlns:xlink="http://www.w3.org/1999/xlink">
    <title>BB21BB75-7F5D-4428-820F-FD97D35AD3B0</title>
    <g id="Wireframes" stroke="none" stroke-width="1" fill="none" fill-rule="evenodd">
        <g id="Nodes-light" transform="translate(-1006.000000, -21.000000)" fill-rule="nonzero">
            <g id="icons8-smiling_sun" transform="translate(973.000000, 16.000000)">
                <g transform="translate(33.000000, 5.000000)">
                    <rect id="Rectangle" fill="#FF9800" x="3" y="3" width="14" height="14"></rect>
                    <polygon id="Rectangle" fill="#FF9800" transform="translate(10.000000, 10.000000) rotate(-45.001000) translate(-10.000000, -10.000000) " points="2.929 2.929 17.071 2.929 17.071 17.071 2.929 17.071"></polygon>
                    <path d="M3.889,10 C3.889,13.376 6.624,16.111 10,16.111 C13.3755,16.111 16.111,13.376 16.111,10 C16.111,6.624 13.3755,3.889 10,3.889 C6.624,3.889 3.889,6.624 3.889,10" id="Path" fill="#FFEB3B"></path>
                    <path d="M7.2225,11.111 C9.0745,11.111 10.926,11.111 12.778,11.111 C12.4865,12.4055 11.327,13.333 10,13.333 C8.673,13.333 7.5135,12.4055 7.2225,11.111 Z" id="Path" fill="#FF9800"></path>
                    <path d="M8.334,9.37 C8.1655,9.37 8.0025,9.2815 7.914,9.1245 C7.748,8.8295 7.5235,8.8145 7.498,8.814 C7.2635,8.814 7.0875,9.1215 7.0855,9.125 C6.9545,9.356 6.6615,9.4375 6.43,9.308 C6.1985,9.1775 6.1165,8.884 6.2475,8.6525 C6.3225,8.519 6.737,7.852 7.5,7.852 C7.634,7.852 8.324,7.8905 8.753,8.653 C8.8835,8.8845 8.801,9.178 8.5695,9.3085 C8.4945,9.35 8.4135,9.37 8.334,9.37 Z" id="Path" fill="#FF9800"></path>
                    <path d="M13.334,9.37 C13.1655,9.37 13.0025,9.2815 12.914,9.1245 C12.748,8.8295 12.5235,8.8145 12.498,8.814 C12.2635,8.814 12.0875,9.1215 12.0855,9.125 C11.955,9.356 11.6605,9.4375 11.43,9.308 C11.1985,9.1775 11.1165,8.884 11.2475,8.6525 C11.3225,8.519 11.737,7.852 12.5,7.852 C12.634,7.852 13.324,7.8905 13.753,8.653 C13.8835,8.8845 13.801,9.178 13.5695,9.3085 C13.4945,9.35 13.4135,9.37 13.334,9.37 Z" id="Path" fill="#FF9800"></path>
                </g>
            </g>
        </g>
    </g>
</svg>