<?xml version="1.0" encoding="UTF-8"?>
<svg width="40px" height="42px" viewBox="0 0 40 42" version="1.1" xmlns="http://www.w3.org/2000/svg" xmlns:xlink="http://www.w3.org/1999/xlink">
    <title>C029643A-D1DA-47B5-9515-824599ED8256</title>
    <defs>
        <linearGradient x1="49.6388889%" y1="46.2009439%" x2="50.525%" y2="57.5893622%" id="linearGradient-1">
            <stop stop-color="#D94A23" offset="5.6%"></stop>
            <stop stop-color="#CF4621" offset="17.5%"></stop>
            <stop stop-color="#B33D1D" offset="38%"></stop>
            <stop stop-color="#862D16" offset="64.6%"></stop>
            <stop stop-color="#48180C" offset="96%"></stop>
            <stop stop-color="#40150B" offset="100%"></stop>
        </linearGradient>
        <radialGradient cx="17.6926085%" cy="27.3687116%" fx="17.6926085%" fy="27.3687116%" r="81.8224482%" gradientTransform="translate(0.176926,0.273687),scale(1.000000,0.882272),translate(-0.176926,-0.273687)" id="radialGradient-2">
            <stop stop-color="#000000" offset="0%"></stop>
            <stop stop-color="#000000" stop-opacity="0" offset="100%"></stop>
        </radialGradient>
        <linearGradient x1="15.6789474%" y1="15.6789474%" x2="85.2789474%" y2="85.2789474%" id="linearGradient-3">
            <stop stop-color="#FEDE00" offset="0%"></stop>
            <stop stop-color="#FFD000" offset="100%"></stop>
        </linearGradient>
        <linearGradient x1="39.475%" y1="13.818125%" x2="57.5325%" y2="79.11125%" id="linearGradient-4">
            <stop stop-color="#FC7D5B" offset="0%"></stop>
            <stop stop-color="#FA7753" offset="14.2%"></stop>
            <stop stop-color="#ED5328" offset="100%"></stop>
        </linearGradient>
        <radialGradient cx="50%" cy="50%" fx="50%" fy="50%" r="50%" id="radialGradient-5">
            <stop stop-color="#000000" offset="0%"></stop>
            <stop stop-color="#000000" stop-opacity="0" offset="100%"></stop>
        </radialGradient>
    </defs>
    <g id="Visuals" stroke="none" stroke-width="1" fill="none" fill-rule="evenodd">
        <g id="Notifier" transform="translate(-568.000000, -2181.000000)" fill-rule="nonzero">
            <g id="Group-3" transform="translate(150.000000, 2032.000000)">
                <g id="Group-6-Copy" transform="translate(390.000000, 122.000000)">
                    <g id="icons8-coin_wallet" transform="translate(28.000000, 27.000000)">
                        <path d="M36,18 L0,18 L0,11.84 C0,10.8 0.797,9.934 1.834,9.847 L33.834,7.18 C35,7.083 36,8.004 36,9.174 L36,18 Z" id="Path" fill="url(#linearGradient-1)"></path>
                        <circle id="Oval" fill="#C9D4E0" cx="24.714" cy="13.286" r="8.286"></circle>
                        <circle id="Oval" fill="#B2BBC7" cx="24.714" cy="13.286" r="6.286"></circle>
                        <path d="M16.303,13.037 C16.303,15.611 17.501,17.901 19.367,19.392 C24.798,19.011 29.088,14.496 29.088,8.969 C29.088,7.974 28.94,7.016 28.681,6.104 C27.445,5.346 25.996,4.901 24.439,4.901 C19.945,4.901 16.303,8.543 16.303,13.037 Z" id="Path" fill="url(#radialGradient-2)"></path>
                        <circle id="Oval" fill="url(#linearGradient-3)" cx="18.5" cy="9.5" r="9.5"></circle>
                        <circle id="Oval" fill="#F5BE00" cx="18.5" cy="9.5" r="7.5"></circle>
                        <path d="M18.5,19 C18.572,19 18.642,18.991 18.714,18.989 C20.223,20.577 22.351,21.571 24.714,21.571 C29.29,21.571 33,17.861 33,13.285 C33,13.189 32.991,13.095 32.988,12.999 L9.674,12.999 C11.069,16.513 14.491,19 18.5,19 Z" id="Path" fill="#000000" opacity="0.05"></path>
                        <path d="M16.33,11.727 L16.33,10.426 C16.802,10.715 17.305,10.86 17.838,10.86 C18.239,10.86 18.554,10.765 18.78,10.574 C19.006,10.383 19.12,10.123 19.12,9.796 C19.12,9.112 18.637,8.77 17.67,8.77 C17.355,8.77 16.975,8.799 16.528,8.857 L16.528,4.997 L20.353,4.997 L20.353,6.24 L17.828,6.24 L17.828,7.623 C18.03,7.604 18.221,7.594 18.401,7.594 C19.111,7.594 19.666,7.781 20.068,8.152 C20.469,8.525 20.67,9.026 20.67,9.656 C20.67,10.352 20.431,10.922 19.952,11.364 C19.474,11.806 18.825,12.027 18.005,12.027 C17.342,12.026 16.783,11.927 16.33,11.727 Z" id="Path" fill="#FEE119"></path>
                        <path d="M9.892,13.5 C11.403,16.745 14.684,19 18.5,19 C18.572,19 18.642,18.991 18.714,18.989 C20.223,20.577 22.351,21.571 24.714,21.571 C29.218,21.571 32.874,17.976 32.989,13.5 L9.892,13.5 Z" id="Path" fill="#000000" opacity="0.07"></path>
                        <path d="M38,42 L2,42 C0.895,42 0,41.105 0,40 L0,12 C0,13.105 0.895,14 2,14 L38,14 C39.105,14 40,14.895 40,16 L40,40 C40,41.105 39.105,42 38,42 Z" id="Path" fill="url(#linearGradient-4)"></path>
                        <circle id="Oval" fill="url(#radialGradient-5)" opacity="0.3" cx="34" cy="27" r="3"></circle>
                        <path d="M34,25 C32.895,25 32,25.895 32,27 C32,28.105 32.895,29 34,29 C35.105,29 36,28.105 36,27 C36,25.895 35.105,25 34,25 Z" id="Path" fill="#FFFFFF"></path>
                    </g>
                </g>
            </g>
        </g>
    </g>
</svg>