<?xml version="1.0" encoding="UTF-8"?>
<svg width="40px" height="42px" viewBox="0 0 40 42" version="1.1" xmlns="http://www.w3.org/2000/svg" xmlns:xlink="http://www.w3.org/1999/xlink">
    <title>1E33D60F-AF92-4FAF-85CC-C34E0C36BE98</title>
    <defs>
        <radialGradient cx="17.6954545%" cy="27.3740776%" fx="17.6954545%" fy="27.3740776%" r="81.8227273%" gradientTransform="translate(0.176955,0.273741),scale(1.000000,0.882259),translate(-0.176955,-0.273741)" id="radialGradient-1">
            <stop stop-color="#000000" offset="0%"></stop>
            <stop stop-color="#000000" stop-opacity="0" offset="100%"></stop>
        </radialGradient>
        <linearGradient x1="15.68125%" y1="15.68125%" x2="85.28125%" y2="85.28125%" id="linearGradient-2">
            <stop stop-color="#FEDE00" offset="0%"></stop>
            <stop stop-color="#FFD000" offset="100%"></stop>
        </linearGradient>
    </defs>
    <g id="Visuals" stroke="none" stroke-width="1" fill="none" fill-rule="evenodd">
        <g id="Notifier" transform="translate(-174.000000, -2181.000000)" fill-rule="nonzero">
            <g id="Group-3" transform="translate(150.000000, 2032.000000)">
                <g id="Group-6" transform="translate(0.000000, 122.000000)">
                    <g id="icons8-coins" transform="translate(24.000000, 27.000000)">
                        <circle id="Oval" fill="#C9D4E0" cx="16.5" cy="32.5" r="9.5"></circle>
                        <circle id="Oval" fill="#B2BBC7" cx="16.5" cy="32.5" r="7.5"></circle>
                        <path d="M14.116,36.329 L14.116,34.9 C14.635,35.218 15.187,35.376 15.773,35.376 C16.214,35.376 16.559,35.271 16.808,35.061 C17.057,34.851 17.181,34.566 17.181,34.206 C17.181,33.454 16.65,33.079 15.588,33.079 C15.242,33.079 14.824,33.111 14.334,33.174 L14.334,28.934 L18.536,28.934 L18.536,30.3 L15.763,30.3 L15.763,31.819 C15.985,31.798 16.195,31.787 16.393,31.787 C17.173,31.787 17.783,31.992 18.224,32.401 C18.665,32.811 18.886,33.361 18.886,34.053 C18.886,34.818 18.623,35.444 18.097,35.929 C17.571,36.415 16.859,36.657 15.959,36.657 C15.227,36.657 14.613,36.547 14.116,36.329 Z" id="Path" fill="#C9D4E0"></path>
                        <path d="M7.046,31.591 C9.228,32.846 11.689,33.672 14.324,33.915 C16.725,36.483 19.962,38.245 23.599,38.798 C25.088,37.121 26,34.919 26,32.5 C26,27.253 21.747,23 16.5,23 C11.56,23 7.504,26.771 7.046,31.591 Z" id="Path" fill="#000000" opacity="0.05"></path>
                        <path d="M7.266,30.552 C9.492,31.894 12.045,32.751 14.786,32.939 C17.16,35.629 20.494,37.44 24.248,37.868 C25.343,36.367 26,34.512 26,32.5 C26,27.253 21.747,23 16.5,23 C11.929,23 8.122,26.251 7.266,30.552 Z" id="Path" fill="#000000" opacity="0.07"></path>
                        <circle id="Oval" fill="#FF8F6B" cx="26" cy="23" r="14"></circle>
                        <circle id="Oval" fill="#ED6C47" cx="26" cy="23" r="12"></circle>
                        <polygon id="Path" fill="#F5BE00" points="25.039 28.308 19.149 28.308 19.149 26.685 21.078 26.685 21.078 20.886 19.097 21.315 19.097 19.653 23.123 18.841 23.123 26.685 25.039 26.685 25.039 28.308"></polygon>
                        <path d="M29.474,28.47 C27.257,28.47 26.149,26.914 26.149,23.801 C26.149,22.186 26.449,20.956 27.048,20.109 C27.648,19.263 28.517,18.839 29.655,18.839 C31.82,18.839 32.902,20.421 32.902,23.586 C32.902,25.162 32.607,26.37 32.016,27.21 C31.426,28.05 30.578,28.47 29.474,28.47 Z M29.565,20.405 C28.678,20.405 28.234,21.52 28.234,23.749 C28.234,25.849 28.669,26.898 29.539,26.898 C30.388,26.898 30.812,25.816 30.812,23.651 C30.812,21.486 30.396,20.405 29.565,20.405 Z" id="Shape" fill="#FF8F6B"></path>
                        <path d="M12,23 C12,27.429 14.062,31.37 17.272,33.936 C26.617,33.281 34,25.512 34,16 C34,14.288 33.746,12.639 33.299,11.07 C31.172,9.766 28.678,9 26,9 C18.268,9 12,15.268 12,23 Z" id="Path" fill="url(#radialGradient-1)"></path>
                        <circle id="Oval" fill="url(#linearGradient-2)" cx="16" cy="16" r="16"></circle>
                        <circle id="Oval" fill="#F5BE00" cx="16" cy="16" r="13"></circle>
                        <path d="M12.427,21.896 L12.427,19.511 C13.293,20.041 14.215,20.306 15.192,20.306 C15.928,20.306 16.504,20.131 16.919,19.781 C17.334,19.43 17.542,18.955 17.542,18.354 C17.542,17.099 16.656,16.472 14.883,16.472 C14.305,16.472 13.608,16.525 12.789,16.631 L12.789,9.555 L19.803,9.555 L19.803,11.834 L15.174,11.834 L15.174,14.369 C15.545,14.334 15.895,14.316 16.225,14.316 C17.526,14.316 18.545,14.658 19.281,15.34 C20.017,16.024 20.385,16.943 20.385,18.097 C20.385,19.374 19.946,20.418 19.069,21.228 C18.192,22.039 17.002,22.4430041 15.5,22.4430041 C14.282,22.444 13.258,22.262 12.427,21.896 Z" id="Path" fill="#FEE119"></path>
                    </g>
                </g>
            </g>
        </g>
    </g>
</svg>