<?xml version="1.0" encoding="UTF-8"?>
<svg width="19px" height="17px" viewBox="0 0 19 17" version="1.1" xmlns="http://www.w3.org/2000/svg" xmlns:xlink="http://www.w3.org/1999/xlink">
    <title>11BAC82E-8FC2-48ED-92B7-0923B19290B1</title>
    <g id="Wireframes" stroke="none" stroke-width="1" fill="none" fill-rule="evenodd">
        <g id="Nodes" transform="translate(-150.000000, -121.000000)" fill="#FFFFFF" fill-rule="nonzero">
            <g id="Group-7" transform="translate(150.000000, 118.000000)">
                <g id="home-alt" transform="translate(0.000000, 3.000000)">
                    <path d="M18.2316485,7.07334604 L9.91497251,0.287138407 C9.49413503,-0.052287755 8.89356229,-0.052287755 8.47272481,0.287138407 L0.158906123,7.07334604 C0.0367912886,7.17286481 0.0182583056,7.35244303 0.117474539,7.47480379 L0.47821505,7.9180503 C0.577305195,8.03958537 0.75582838,8.05855346 0.878244132,7.96055339 L2.33763594,6.76832386 L2.33763594,15.4475263 C2.33763594,15.7631405 2.59349183,16.0189964 2.90910606,16.0189964 L7.48086699,16.0189964 C7.79648122,16.0189964 8.0523371,15.7631405 8.0523371,15.4475263 L8.0523371,10.8757653 L10.3382176,10.8864804 L10.3382176,15.4610987 C10.3382176,15.7767129 10.5940735,16.0325688 10.9096877,16.0325688 L15.4814486,16.0207822 C15.7970628,16.0207822 16.0529187,15.7649263 16.0529187,15.4493121 L16.0529187,6.76832386 L17.5123105,7.96055339 C17.6347272,8.06001177 17.8145792,8.04146703 17.9141255,7.91912181 L18.274866,7.4758753 C18.3226511,7.41682073 18.344953,7.34116852 18.3368436,7.26563645 C18.3287341,7.19010438 18.2908808,7.12091073 18.2316485,7.07334604 Z M14.9060496,14.8806993 L14.9096213,14.8806993 L11.4808006,14.8914144 L11.4808006,10.3135816 C11.4798269,9.99906742 11.225626,9.74406957 10.9111164,9.74211148 L7.48229566,9.73246792 C7.33042318,9.73199332 7.18460831,9.79199202 7.07705032,9.89921494 C6.96949233,10.0064379 6.90903896,10.1520648 6.9090397,10.303938 L6.9090397,14.8806993 L3.48057617,14.8806993 L3.48057617,5.83575607 L9.19527734,1.17220275 L14.9099785,5.83575607 L14.9060496,14.8806993 Z" id="Shape"></path>
                </g>
            </g>
        </g>
    </g>
</svg>