<?xml version="1.0" encoding="UTF-8"?>
<svg width="25px" height="24px" viewBox="0 0 25 24" version="1.1" xmlns="http://www.w3.org/2000/svg" xmlns:xlink="http://www.w3.org/1999/xlink">
    <title>7B9717DA-5AD8-4917-B5FE-46E4EBCE44DD</title>
    <defs>
        <filter id="filter-1">
            <feColorMatrix in="SourceGraphic" type="matrix" values="0 0 0 0 0.847000 0 0 0 0 0.847000 0 0 0 0 0.847000 0 0 0 1.000000 0"></feColorMatrix>
        </filter>
    </defs>
    <g id="Wireframes" stroke="none" stroke-width="1" fill="none" fill-rule="evenodd">
        <g id="Nodes" transform="translate(-1263.000000, -1078.000000)">
            <g id="social" transform="translate(0.000000, 1040.000000)" filter="url(#filter-1)">
                <g transform="translate(1109.000000, 36.000000)">
                    <g id="reddit" transform="translate(154.000000, 2.000000)" fill="#FF4500" fill-rule="nonzero">
                        <path d="M22.1918699,9.19856911 C21.4030569,9.19856911 20.7089431,9.53053659 20.1979837,10.0477398 C18.3196098,8.72819512 15.7866667,7.87902439 12.9800325,7.7884878 L14.4379837,1.1220813 L19.0803252,2.17938211 C19.0803252,3.33242276 20.0065041,4.27421138 21.1428943,4.27421138 C22.3011382,4.27421138 23.2325203,3.30744715 23.2325203,2.15336585 C23.2325203,0.999284553 22.3073821,0.0325203252 21.143935,0.0325203252 C20.3332683,0.0325203252 19.6339512,0.528910569 19.2853333,1.20741463 L14.1580488,0.0543739837 C13.8999675,-0.0153495935 13.6470894,0.17196748 13.5784065,0.434211382 L11.9778862,7.78328455 C9.19310569,7.90087805 6.68721951,8.74900813 4.80260163,10.0695935 C4.29164228,9.53053659 3.57047154,9.19856911 2.78165854,9.19856911 C-0.144650407,9.19856911 -1.10308943,13.1832195 1.57658537,14.5454309 C1.48188618,14.9668943 1.43921951,15.4164553 1.43921951,15.8649756 C1.43921951,20.340813 6.4083252,23.9674797 12.5096585,23.9674797 C18.6370081,23.9674797 23.6061138,20.340813 23.6061138,15.8649756 C23.6061138,15.4164553 23.5592846,14.9460813 23.4437724,14.5235772 C26.0693333,13.1561626 25.1025691,9.20065041 22.1918699,9.19856911 Z M5.82868293,14.8284878 C5.82868293,13.6535935 6.75486179,12.7076423 7.91830894,12.7076423 C9.05469919,12.7076423 9.9819187,13.6473496 9.9819187,14.8284878 C9.9819187,15.9825691 9.05573984,16.9233384 7.91830894,16.9233384 C6.76006504,16.9285203 5.82868293,15.9825691 5.82868293,14.8284878 L5.82868293,14.8284878 Z M17.1082927,19.8215285 C15.1924553,21.7654634 9.78627642,21.7654634 7.86939837,19.8215285 C7.65814634,19.6342114 7.65814634,19.3032846 7.86939837,19.0899512 C8.0535935,18.9026341 8.38035772,18.9026341 8.56455285,19.0899512 C10.0277073,20.6124228 14.8813008,20.638439 16.407935,19.0899512 C16.5921301,18.9026341 16.9188943,18.9026341 17.1030894,19.0899512 C17.3185041,19.3043252 17.3185041,19.635252 17.1082927,19.8215285 Z M17.065626,16.9274797 C15.9292358,16.9274797 15.0030569,15.9877724 15.0030569,14.8347317 C15.0030569,13.6598374 15.9292358,12.7138862 17.065626,12.7138862 C18.2238699,12.7138862 19.155252,13.6535935 19.155252,14.8347317 C19.1500488,15.9825691 18.2238699,16.9274797 17.065626,16.9274797 Z" id="Shape"></path>
                    </g>
                </g>
            </g>
        </g>
    </g>
</svg>