<?xml version="1.0" encoding="UTF-8"?>
<svg width="125px" height="14px" viewBox="0 0 125 14" version="1.1" xmlns="http://www.w3.org/2000/svg" xmlns:xlink="http://www.w3.org/1999/xlink">
    <title>FD5570BF-EA29-48D3-8234-8A69164236D4</title>
    <g id="Wireframes" stroke="none" stroke-width="1" fill="none" fill-rule="evenodd">
        <g id="Nodes-light" transform="translate(-151.000000, -26.000000)">
            <g id="Group-Copy" transform="translate(151.000000, 26.000000)">
                <path d="M24.8037109,12.9726562 L25.6826172,10.3359375 L30.3056641,10.3359375 L31.1933594,12.9726562 L33.9970703,12.9726562 L29.2070312,0.17578125 L26.7636719,0.17578125 L22,12.9726562 L24.8037109,12.9726562 Z M29.59375,8.20019531 L26.3945312,8.20019531 L27.9853516,3.41015625 L29.59375,8.20019531 Z M40.5457626,12.9726562 L45.0018173,0.17578125 L42.0662704,0.17578125 L39.1658798,9.79980469 L36.2830673,0.17578125 L33.3563094,0.17578125 L37.794786,12.9726562 L40.5457626,12.9726562 Z M47.1911345,12.9726562 L48.0700408,10.3359375 L52.6930876,10.3359375 L53.580783,12.9726562 L56.3844939,12.9726562 L51.5944548,0.17578125 L49.1510955,0.17578125 L44.3874236,12.9726562 L47.1911345,12.9726562 Z M51.9811736,8.20019531 L48.7819548,8.20019531 L50.3727751,3.41015625 L51.9811736,8.20019531 Z M59.6197096,12.9726562 L62.0806471,8.49023438 L64.5415846,12.9726562 L67.6089674,12.9726562 L63.7857252,6.52148438 L67.5122877,0.17578125 L64.4800611,0.17578125 L62.0806471,4.58789062 L59.681233,0.17578125 L56.6490065,0.17578125 L60.375569,6.52148438 L56.5523268,12.9726562 L59.6197096,12.9726562 Z M71.4945737,12.9726562 L71.4945737,4.55273438 L76.6273862,12.9726562 L79.264105,12.9726562 L79.264105,0.17578125 L76.6361753,0.17578125 L76.6361753,8.61328125 L71.4945737,0.17578125 L68.857855,0.17578125 L68.857855,12.9726562 L71.4945737,12.9726562 Z M86.5686566,13.1484375 C87.6409222,13.1484375 88.5916058,12.890625 89.4207074,12.375 C90.2498089,11.859375 90.887016,11.1269531 91.3323285,10.1777344 C91.777641,9.22851562 92.0002972,8.12402344 92.0002972,6.86425781 L92.0002972,6.86425781 L92.0002972,6.29296875 C92.0002972,5.0390625 91.7732464,3.93310547 91.3191449,2.97509766 C90.8650433,2.01708984 90.2234418,1.28173828 89.3943402,0.769042969 C88.5652386,0.256347656 87.6174847,0 86.5510785,0 C85.4846722,0 84.5369183,0.256347656 83.7078168,0.769042969 C82.8787152,1.28173828 82.2371136,2.01708984 81.7830121,2.97509766 C81.3289105,3.93310547 81.1018597,5.04199219 81.1018597,6.30175781 L81.1018597,6.30175781 L81.1018597,6.93457031 C81.1077191,8.16503906 81.3391644,9.25341797 81.7961957,10.199707 C82.2532269,11.1459961 82.8977582,11.8740234 83.7297894,12.3837891 C84.5618207,12.8935547 85.5081097,13.1484375 86.5686566,13.1484375 Z M86.5686566,10.9863281 C85.6663128,10.9863281 84.9749066,10.6259766 84.4944378,9.90527344 C84.0139691,9.18457031 83.7737347,8.17089844 83.7737347,6.86425781 L83.7737347,6.86425781 L83.7737347,6.24023438 C83.7795941,4.91015625 84.0227582,3.90087891 84.5032269,3.21240234 C84.9836957,2.52392578 85.6663128,2.1796875 86.5510785,2.1796875 C87.4417035,2.1796875 88.1272503,2.52832031 88.6077191,3.22558594 C89.0881878,3.92285156 89.3284222,4.94238281 89.3284222,6.28417969 L89.3284222,6.28417969 L89.3284222,6.90820312 C89.3225628,8.23828125 89.0823285,9.25048828 88.6077191,9.94482422 C88.1331097,10.6391602 87.4534222,10.9863281 86.5686566,10.9863281 Z M97.8019192,12.9726562 C98.9210598,12.9667969 99.9259426,12.7089844 100.816568,12.1992188 C101.707193,11.6894531 102.397134,10.9716797 102.886392,10.0458984 C103.37565,9.12011719 103.620279,8.0625 103.620279,6.87304688 L103.620279,6.87304688 L103.620279,6.28417969 C103.620279,5.09472656 103.371255,4.03271484 102.873208,3.09814453 C102.375161,2.16357422 101.68229,1.44287109 100.794595,0.936035156 C99.9068996,0.429199219 98.900552,0.17578125 97.775552,0.17578125 L97.775552,0.17578125 L93.838052,0.17578125 L93.838052,12.9726562 L97.8019192,12.9726562 Z M97.7491848,10.8544922 L96.4747707,10.8544922 L96.4747707,2.31152344 L97.775552,2.31152344 C98.8126614,2.31152344 99.6007473,2.64697266 100.13981,3.31787109 C100.678872,3.98876953 100.948404,4.97460938 100.948404,6.27539062 L100.948404,6.27539062 L100.948404,6.95214844 C100.936685,8.20605469 100.658364,9.16992188 100.113443,9.84375 C99.5685207,10.5175781 98.7804348,10.8544922 97.7491848,10.8544922 L97.7491848,10.8544922 Z M114.036158,12.9726562 L114.036158,10.8544922 L108.094752,10.8544922 L108.094752,7.42675781 L113.157252,7.42675781 L113.157252,5.36132812 L108.094752,5.36132812 L108.094752,2.31152344 L114.01858,2.31152344 L114.01858,0.17578125 L105.458033,0.17578125 L105.458033,12.9726562 L114.036158,12.9726562 Z M120.145397,13.1484375 C121.563366,13.1484375 122.691296,12.8334961 123.529186,12.2036133 C124.367077,11.5737305 124.786022,10.7050781 124.786022,9.59765625 C124.786022,8.6015625 124.443249,7.76953125 123.757702,7.1015625 C123.072155,6.43359375 121.979382,5.87402344 120.479382,5.42285156 C119.664929,5.17675781 119.048229,4.91308594 118.629284,4.63183594 C118.210339,4.35058594 118.000866,4.00195312 118.000866,3.5859375 C118.000866,3.140625 118.179577,2.78173828 118.536999,2.50927734 C118.894421,2.23681641 119.395397,2.10058594 120.039929,2.10058594 C120.707897,2.10058594 121.226452,2.26318359 121.595593,2.58837891 C121.964733,2.91357422 122.149304,3.36914062 122.149304,3.95507812 L122.149304,3.95507812 L124.786022,3.95507812 C124.786022,3.1875 124.588269,2.50195312 124.192761,1.8984375 C123.797253,1.29492188 123.242077,0.827636719 122.527233,0.496582031 C121.81239,0.165527344 120.997936,0 120.083874,0 C119.175671,0 118.356823,0.15234375 117.627331,0.45703125 C116.897839,0.76171875 116.338269,1.18505859 115.94862,1.72705078 C115.558972,2.26904297 115.364147,2.88574219 115.364147,3.57714844 C115.364147,4.90722656 116.09071,5.96484375 117.543835,6.75 C118.077038,7.03710937 118.800671,7.32861328 119.714733,7.62451172 C120.628796,7.92041016 121.261608,8.20166016 121.613171,8.46826172 C121.964733,8.73486328 122.140515,9.1171875 122.140515,9.61523438 C122.140515,10.0722656 121.964733,10.4282227 121.613171,10.6831055 C121.261608,10.9379883 120.772351,11.0654297 120.145397,11.0654297 C118.457897,11.0654297 117.614147,10.359375 117.614147,8.94726562 L117.614147,8.94726562 L114.96864,8.94726562 C114.96864,9.7734375 115.181042,10.5 115.605847,11.1269531 C116.030651,11.7539062 116.647351,12.2475586 117.455944,12.6079102 C118.264538,12.9682617 119.161022,13.1484375 120.145397,13.1484375 Z" id="AVAXNODES" fill="#292932" fill-rule="nonzero"></path>
                <path d="M8,0 C9.38071187,0 10.5,1.11928813 10.5,2.5 C10.5,3.10568749 10.2846063,3.66106709 9.92623838,4.09371933 L12.7434654,8.11651289 C12.9821227,8.04082992 13.2362932,8 13.5,8 C14.8807119,8 16,9.11928813 16,10.5 C16,11.8807119 14.8807119,13 13.5,13 C12.1192881,13 11,11.8807119 11,10.5 C11,9.74409026 11.335487,9.06653771 11.8656879,8.6081153 L9.1449035,4.72301842 C8.80187885,4.9000412 8.41261274,5 8,5 C7.58738726,5 7.19812115,4.9000412 6.8550965,4.72301842 L4.13431207,8.6081153 C4.66451303,9.06653771 5,9.74409026 5,10.5 C5,11.8807119 3.88071187,13 2.5,13 C1.11928813,13 0,11.8807119 0,10.5 C0,9.11928813 1.11928813,8 2.5,8 C2.76370682,8 3.01787731,8.04082992 3.25653459,8.11651289 L6.07376162,4.09371933 C5.71539369,3.66106709 5.5,3.10568749 5.5,2.5 C5.5,1.11928813 6.61928813,0 8,0 Z" id="Combined-Shape" fill="#FF6832"></path>
            </g>
        </g>
    </g>
</svg>