<?xml version="1.0" encoding="UTF-8"?>
<svg width="25px" height="28px" viewBox="0 0 25 28" version="1.1" xmlns="http://www.w3.org/2000/svg" xmlns:xlink="http://www.w3.org/1999/xlink">
    <title>72759502-D38B-4128-9CEB-7C406CB84333</title>
    <g id="Wireframes" stroke="none" stroke-width="1" fill="none" fill-rule="evenodd">
        <g id="Node-Detail" transform="translate(-755.000000, -254.000000)" fill="#878787" fill-rule="nonzero">
            <g id="Group-11" transform="translate(150.000000, 245.000000)">
                <g id="copy" transform="translate(597.000000, 3.000000)">
                    <path d="M31.7311484,9.60614844 L28.8938516,6.76885156 C28.4015714,6.27656773 27.733895,6 27.0377031,6 L17.625,6 C16.1752344,6 15,7.17523437 15,8.625 L15,11.25 L10.625,11.25 C9.17523438,11.25 8,12.4252344 8,13.875 L8,31.375 C8,32.8247656 9.17523438,34 10.625,34 L22.875,34 C24.3247656,34 25.5,32.8247656 25.5,31.375 L25.5,28.75 L29.875,28.75 C31.3247656,28.75 32.5,27.5747656 32.5,26.125 L32.5,11.4622969 C32.5,10.766105 32.2234323,10.0984286 31.7311484,9.60614844 Z M27.25,7.77685156 C27.4038551,7.81481304 27.5443903,7.89414899 27.6563828,8.00626562 L30.4936797,10.8436172 C30.6057851,10.9556182 30.6851192,11.0961501 30.7230938,11.25 L27.25,11.25 L27.25,7.77685156 Z M23.75,31.375 C23.75,31.8574531 23.3574531,32.25 22.875,32.25 L10.625,32.25 C10.1425469,32.25 9.75,31.8574531 9.75,31.375 L9.75,13.875 C9.75,13.3925469 10.1425469,13 10.625,13 L15,13 L15,26.125 C15,27.5747656 16.1752344,28.75 17.625,28.75 L23.75,28.75 L23.75,31.375 Z M30.75,26.125 C30.75,26.6074531 30.3574531,27 29.875,27 L17.625,27 C17.1425469,27 16.75,26.6074531 16.75,26.125 L16.75,8.625 C16.75,8.14254688 17.1425469,7.75 17.625,7.75 L25.5,7.75 L25.5,11.6875 C25.5,12.409375 26.090625,13 26.8125,13 L30.75,13 L30.75,26.125 Z" id="Shape"></path>
                </g>
            </g>
        </g>
    </g>
</svg>