<?xml version="1.0" encoding="UTF-8"?>
<svg width="6px" height="10px" viewBox="0 0 6 10" version="1.1" xmlns="http://www.w3.org/2000/svg" xmlns:xlink="http://www.w3.org/1999/xlink">
    <title>EE634EE0-6694-4C36-A678-6100F9FADC25</title>
    <defs>
        <path d="M5.68269873,0.894455578 C5.74504596,0.956802806 5.7762191,1.02850104 5.7762191,1.10955244 C5.7762191,1.19060383 5.74504596,1.26230207 5.68269873,1.3246493 L2.00734803,5 L5.68269873,8.6753507 C5.74504596,8.73769793 5.7762191,8.80939617 5.7762191,8.89044756 C5.7762191,8.97149896 5.74504596,9.04319719 5.68269873,9.10554442 L5.21509686,9.57314629 C5.15274963,9.63549352 5.0810514,9.66666667 5,9.66666667 C4.9189486,9.66666667 4.84725037,9.63549352 4.78490314,9.57314629 L0.426853707,5.21509686 C0.36450648,5.15274963 0.333333333,5.0810514 0.333333333,5 C0.333333333,4.9189486 0.36450648,4.84725037 0.426853707,4.78490314 L4.78490314,0.426853707 C4.84725037,0.36450648 4.9189486,0.333333333 5,0.333333333 C5.0810514,0.333333333 5.15274963,0.36450648 5.21509686,0.426853707 L5.68269873,0.894455578 Z" id="path-1"></path>
    </defs>
    <g id="Wireframes" stroke="none" stroke-width="1" fill="none" fill-rule="evenodd">
        <g id="Nodes" transform="translate(-1010.000000, -949.000000)">
            <g id="Group-9" transform="translate(150.000000, 471.000000)">
                <g id="Pagination-bar" transform="translate(0.500000, 461.000000)">
                    <g id="Pagination" transform="translate(846.500000, 6.000000)">
                        <g id="Styles/Icons/arrow-left" transform="translate(13.000000, 11.000000)">
                            <mask id="mask-2" fill="white">
                                <use xlink:href="#path-1"></use>
                            </mask>
                            <use id="angle-left" fill="#F1F3F5" opacity="0.6" xlink:href="#path-1"></use>
                        </g>
                    </g>
                </g>
            </g>
        </g>
    </g>
</svg>