<?xml version="1.0" encoding="UTF-8"?>
<svg width="7px" height="10px" viewBox="0 0 7 10" version="1.1" xmlns="http://www.w3.org/2000/svg" xmlns:xlink="http://www.w3.org/1999/xlink">
    <title>597DFA66-E71B-410A-9701-ADC4C6D7AED8</title>
    <defs>
        <path d="M5.68269873,4.78490314 C5.74504596,4.84725037 5.7762191,4.9189486 5.7762191,5 C5.7762191,5.0810514 5.74504596,5.15274963 5.68269873,5.21509686 L1.3246493,9.57314629 C1.26230207,9.63549352 1.19060383,9.66666667 1.10955244,9.66666667 C1.02850104,9.66666667 0.956802806,9.63549352 0.894455578,9.57314629 L0.426853707,9.10554442 C0.36450648,9.04319719 0.333333333,8.97149896 0.333333333,8.89044756 C0.333333333,8.80939617 0.36450648,8.73769793 0.426853707,8.6753507 L4.10220441,5 L0.426853707,1.3246493 C0.36450648,1.26230207 0.333333333,1.19060383 0.333333333,1.10955244 C0.333333333,1.02850104 0.36450648,0.956802806 0.426853707,0.894455578 L0.894455578,0.426853707 C0.956802806,0.36450648 1.02850104,0.333333333 1.10955244,0.333333333 C1.19060383,0.333333333 1.26230207,0.36450648 1.3246493,0.426853707 L5.68269873,4.78490314 Z" id="path-1"></path>
    </defs>
    <g id="Wireframes" stroke="none" stroke-width="1" fill="none" fill-rule="evenodd">
        <g id="Node-Detail-light" transform="translate(-1270.000000, -1583.000000)">
            <g id="Group-10" transform="translate(150.000000, 1513.000000)">
                <g id="Pagination-bar" transform="translate(0.000000, 53.000000)">
                    <g id="Pagination" transform="translate(846.500000, 6.000000)">
                        <g id="&gt;" transform="translate(261.000000, 0.000000)">
                            <g id="Styles/Icons/arrow-left" transform="translate(13.000000, 11.000000)">
                                <mask id="mask-2" fill="white">
                                    <use xlink:href="#path-1"></use>
                                </mask>
                                <use id="angle-right" fill="#666666" opacity="0.87" xlink:href="#path-1"></use>
                            </g>
                        </g>
                    </g>
                </g>
            </g>
        </g>
    </g>
</svg>