<?xml version="1.0" encoding="UTF-8"?>
<svg width="24px" height="24px" viewBox="0 0 24 24" version="1.1" xmlns="http://www.w3.org/2000/svg" xmlns:xlink="http://www.w3.org/1999/xlink">
    <title>9720F1D5-6C95-422E-9E69-15C6D740F775</title>
    <g id="Wireframes" stroke="none" stroke-width="1" fill="none" fill-rule="evenodd">
        <g id="Nodes-light" transform="translate(-733.000000, -295.000000)" fill="#20202A" fill-rule="nonzero">
            <g id="Group-2" transform="translate(151.000000, 277.000000)">
                <g id="arrow-right" transform="translate(582.000000, 18.000000)">
                    <path d="M11.5962857,0.239196429 L11.2174821,0.617946429 C10.9664464,0.868982143 10.9664464,1.27601786 11.2174821,1.52710714 L20.7796607,11.0892857 L0.642857143,11.0892857 C0.287839286,11.0892857 0,11.377125 0,11.7321429 L0,12.2678571 C0,12.622875 0.287839286,12.9107143 0.642857143,12.9107143 L20.7796607,12.9107143 L11.2174821,22.4728929 C10.9664464,22.7239286 10.9664464,23.1309643 11.2174821,23.3820536 L11.5962857,23.7608036 C11.8473214,24.0118393 12.2543571,24.0118393 12.5053929,23.7608036 L23.8116964,12.4545536 C24.0627321,12.2035179 24.0627321,11.7964821 23.8116964,11.5453929 L12.5053929,0.239196429 C12.2543571,-0.0118928571 11.8473214,-0.0118928571 11.5962857,0.239196429 Z" id="Path"></path>
                </g>
            </g>
        </g>
    </g>
</svg>