<?xml version="1.0" encoding="UTF-8"?>
<svg width="19px" height="19px" viewBox="0 0 19 19" version="1.1" xmlns="http://www.w3.org/2000/svg" xmlns:xlink="http://www.w3.org/1999/xlink">
    <title>BF77B243-DACF-4B88-806F-DABC837DFDF3</title>
    <g id="Wireframes" stroke="none" stroke-width="1" fill="none" fill-rule="evenodd">
        <g id="Nodes" transform="translate(-978.000000, -20.000000)" fill="#F9E041" fill-rule="nonzero">
            <g id="icons8-moon_star" transform="translate(973.000000, 16.000000)">
                <g transform="translate(14.653365, 13.954939) scale(-1, 1) rotate(-50.000000) translate(-14.653365, -13.954939) translate(7.903365, 7.954939)">
                    <polygon id="Path" points="11.4677647 5.36964706 11.4755294 3.32329412 10.2670588 4.97505882 8.32270588 4.33588235 9.52023529 5.99435294 8.31105882 7.64682353 10.2596471 7.02070588 11.4561176 8.67988235 11.4631765 6.63458824 13.4117647 6.00882353"></polygon>
                    <path d="M7.76470588,11.2941176 C4.84094118,11.2941176 2.47058824,8.92341176 2.47058824,6 C2.47058824,3.07588235 4.84094118,0.705882353 7.76470588,0.705882353 C8.23976471,0.705882353 8.69752941,0.774 9.13552941,0.891176471 C8.22211765,0.329647059 7.15094118,-8.52651283e-14 6,-8.52651283e-14 C2.68623529,-8.52651283e-14 1.39888101e-14,2.68623529 1.39888101e-14,6 C1.39888101e-14,9.31376471 2.68623529,12 6,12 C7.15094118,12 8.22247059,11.67 9.13552941,11.1084706 C8.69752941,11.226 8.23976471,11.2941176 7.76470588,11.2941176 Z" id="Path"></path>
                </g>
            </g>
        </g>
    </g>
</svg>